<svg xmlns="http://www.w3.org/2000/svg" width="552.000000pt" height="248.000000pt" viewBox="0 0 552.000000 248.000000">
  <g transform="translate(0.000000,248.000000) scale(0.100000,-0.100000)" fill="none" stroke="#000000">
    <path d="M737 1679 c-291 -391 -527 -712 -525 -713 3 -2 588 -209 1516 -536 l343 -120 1042 401 c573 221 1348 519 1722 663 l680 262 3 30 3 29 -693 114 c-381 62 -911 149 -1178 193 -267 43 -840 137 -1275 209 -674 111 -1103 180 -1109 179 0 0 -239 -320 -529 -711z"/>
  </g>
</svg>